<svg xmlns="http://www.w3.org/2000/svg" viewBox="0 0 64 64">
  <defs>
    <linearGradient id="plane" x1="13" y1="11" x2="52" y2="52" gradientUnits="userSpaceOnUse">
      <stop stop-color="#38bdf8"/>
      <stop offset=".52" stop-color="#2563eb"/>
      <stop offset="1" stop-color="#1d4ed8"/>
    </linearGradient>
    <linearGradient id="fold" x1="25" y1="29" x2="43" y2="41" gradientUnits="userSpaceOnUse">
      <stop stop-color="#e0f2fe"/>
      <stop offset="1" stop-color="#93c5fd"/>
    </linearGradient>
  </defs>
  <path d="M7.5 30.2 54.8 9.8c2.7-1.2 5.4 1.5 4.2 4.2L38.6 61.3c-1.1 2.5-4.7 2.2-5.4-.5l-4.3-17.1-17.1-4.3c-2.7-.7-3-4.1-.5-5.2Z" fill="url(#plane)"/>
  <path d="m28.9 43.7 10.8-10.8 17.7-20.8-22.1 17.4-23.7 8.8 17.3 5.4Z" fill="url(#fold)" opacity=".92"/>
  <path d="m28.9 43.7 8.8 8.7c.8.8 2.2.4 2.5-.7l2.8-11.2-14.1 3.2Z" fill="#60a5fa"/>
</svg>
